<?xml version="1.0" standalone="no"?>
<!DOCTYPE svg PUBLIC "-//W3C//DTD SVG 20010904//EN"
 "http://www.w3.org/TR/2001/REC-SVG-20010904/DTD/svg10.dtd">
<svg version="1.0" xmlns="http://www.w3.org/2000/svg"
 width="260.000000pt" height="260.000000pt" viewBox="0 0 260.000000 260.000000"
 preserveAspectRatio="xMidYMid meet">
<metadata>
Created by potrace 1.11, written by Peter Selinger 2001-2013
</metadata>
<g transform="translate(0.000000,260.000000) scale(0.100000,-0.100000)"
fill="#000000" stroke="none">
<path d="M1950 1943 c-8 -3 -49 -30 -92 -60 l-76 -55 -459 1 -458 2 -45 -23
c-33 -17 -51 -35 -68 -68 -22 -44 -22 -47 -21 -485 0 -242 4 -464 8 -493 9
-60 33 -98 82 -127 32 -19 55 -20 434 -23 220 -2 423 -1 452 3 62 7 109 37
137 85 20 33 21 54 26 475 l5 440 65 48 c112 83 108 77 109 167 0 72 -2 81
-22 94 -29 18 -58 26 -77 19z m-340 -281 c0 -5 -14 -21 -31 -38 -45 -42 -171
-213 -221 -299 -24 -41 -46 -75 -50 -75 -3 0 -47 53 -97 119 -49 65 -97 121
-106 125 -52 20 -108 -19 -108 -73 0 -46 257 -382 304 -397 53 -18 73 -2 130
105 61 114 170 276 233 346 l45 50 1 -337 0 -338 -410 0 -410 0 0 410 0 410
360 0 c198 0 360 -4 360 -8z"/>
</g>
</svg>
